<?xml version="1.0" encoding="UTF-8"?>
<svg version="1.1" xmlns="http://www.w3.org/2000/svg" width="512" height="512">
<path d="M0 0 C8.29855344 6.87887146 14.17007214 14.94120606 16.25 25.6875 C16.78028408 33.30684496 16.63425116 40.18868523 14.00390625 47.40625 C13.03072622 50.35100202 12.3516931 52.55082225 12.25 55.6875 C14.04080734 58.09709801 15.64639258 59.88056184 17.8125 61.8984375 C18.39660645 62.47026764 18.98071289 63.04209778 19.58251953 63.6312561 C21.45587073 65.45885124 23.35162412 67.26094562 25.25 69.0625 C27.10974138 70.85708045 28.9645479 72.65664071 30.81861877 74.45707703 C32.02166335 75.62514294 33.22652713 76.79133811 34.43321228 77.9556427 C37.96022799 81.37275746 41.26762867 84.87766197 44.43798828 88.63085938 C48.28448954 92.99665385 52.47121016 97.05556907 56.5925293 101.16040039 C58.18458966 102.74709946 59.7712299 104.33907742 61.35742188 105.93164062 C66.30928629 110.88567841 71.2790041 115.75547693 76.67382812 120.23413086 C79.4698369 122.81229695 80.79711809 125.15004839 82.25 128.6875 C82.1220939 135.06023339 79.92339507 137.86993826 75.75 142.25 C58.76378177 161.09041004 49.09664251 183.87519937 45.18359375 208.83984375 C43.96624418 212.5530146 42.30022471 214.28268515 39.25 216.6875 C35.01206349 217.43789348 31.27424876 216.37886791 27.75 214 C24.61514718 209.16710191 25.2156188 204.54280774 26.32910156 199.16723633 C26.50924805 198.36954834 26.68939453 197.57186035 26.875 196.75 C27.06030273 195.91170654 27.24560547 195.07341309 27.43652344 194.2097168 C30.57701674 180.46287362 35.56486184 168.06315821 42.25 155.6875 C42.84039062 154.59050781 43.43078125 153.49351562 44.0390625 152.36328125 C47.43271811 146.31203689 51.17896728 141.08485137 55.84375 135.94140625 C57.46595869 133.80859248 57.46595869 133.80859248 57.17080688 131.41586304 C55.92514435 127.72494838 53.62349432 125.470665 50.92333984 122.77978516 C50.36873077 122.21174164 49.8141217 121.64369812 49.2427063 121.05844116 C47.40931334 119.18710416 45.56124188 117.3311702 43.7109375 115.4765625 C42.42846344 114.18123406 41.14629195 112.88560597 39.8644104 111.58969116 C37.17631319 108.87765442 34.4800854 106.17400412 31.77880859 103.47509766 C28.3181133 100.01480933 24.88577235 96.52780377 21.45989037 93.03309059 C18.82095884 90.34970007 16.16406123 87.68467263 13.50175858 85.02448654 C12.22825237 83.74625877 10.96123083 82.46153617 9.70090866 81.17030716 C7.93668855 79.36690954 6.14893015 77.59061947 4.35302734 75.81884766 C3.83742249 75.28076477 3.32181763 74.74268188 2.79058838 74.18829346 C1.13682522 72.50613634 1.13682522 72.50613634 -1.75 70.6875 C-6.00396227 70.83857138 -9.62847258 71.85727075 -13.625 73.25 C-23.83864833 76.36316909 -34.91822172 74.75066146 -44.625 70.3984375 C-55.51839612 64.18787325 -60.96951848 56.11204058 -65.75 44.6875 C-68.50205748 34.0292427 -66.85183333 22.67258487 -61.27734375 13.1796875 C-59.56195237 10.851946 -57.74781956 8.77752661 -55.75 6.6875 C-55.0178125 5.90375 -54.285625 5.12 -53.53125 4.3125 C-38.77651596 -10.25061412 -16.74779959 -12.4212847 0 0 Z M-42.75 20.1875 C-46.78713846 25.6451131 -47.64711744 31.00084556 -46.75 37.6875 C-44.37762934 45.05958641 -40.47553608 49.87448687 -33.75 53.6875 C-27.79534529 55.6723849 -21.10446099 55.70648824 -15.375 53 C-9.16215615 49.3610486 -5.06009128 44.49489665 -2.75 37.6875 C-1.34458387 30.47823579 -3.76832646 24.6652356 -7.75 18.6875 C-11.65573464 14.20585275 -16.16029287 12.08635635 -22.03515625 11.43359375 C-30.85708335 11.01090482 -37.13756576 13.24911388 -42.75 20.1875 Z " fill="#ffffff" transform="translate(91.75,33.3125)"/>
<path d="M0 0 C3.19459956 4.47243938 2.92373063 7.72658084 2.1875 13.0625 C-1.28046608 31.35009751 -9.54068898 49.91537112 -20.57421875 64.859375 C-21.03908691 65.48932373 -21.50395508 66.11927246 -21.98291016 66.76831055 C-22.88949288 67.9774585 -23.81173948 69.17506865 -24.75146484 70.35864258 C-27.19421569 73.53307904 -27.19421569 73.53307904 -27.75944519 77.38442993 C-26.47022429 81.03049514 -24.15762407 83.29974282 -21.4699707 85.97021484 C-20.91375534 86.53825836 -20.35753998 87.10630188 -19.7844696 87.69155884 C-17.94611753 89.56276178 -16.09320351 91.41866894 -14.23828125 93.2734375 C-12.95333913 94.56869354 -11.66877298 95.86432267 -10.38456726 97.16030884 C-7.69211187 99.87219157 -4.99178574 102.57594475 -2.28637695 105.27490234 C1.18158172 108.73685528 4.62371984 112.22329385 8.05974102 115.71690941 C10.70455536 118.39865966 13.36519032 121.06426517 16.03061867 123.72551346 C17.30684637 125.0046174 18.57746401 126.28934412 19.8423214 127.57969284 C21.61136719 129.38061941 23.40116699 131.15800658 25.19799805 132.93115234 C25.71719818 133.46923523 26.23639832 134.00731812 26.77133179 134.56170654 C28.41261777 136.22785355 28.41261777 136.22785355 31.1875 138.0625 C34.94147746 137.96574474 37.09828236 137.10458379 40.5 135.5 C49.70924846 131.92256117 61.91424516 132.99490661 70.828125 136.87109375 C71.99601562 137.46083984 71.99601562 137.46083984 73.1875 138.0625 C73.92484375 138.42472656 74.6621875 138.78695312 75.421875 139.16015625 C84.19947304 144.02743336 88.76229809 152.57810206 91.77734375 161.8828125 C94.1174875 174.31900502 91.72704268 186.10441969 84.97265625 196.67578125 C78.71260205 205.04535043 69.57827279 211.16982736 59.1875 213.0625 C46.1466268 213.95832575 34.52457758 212.86716751 24.15625 204.0390625 C16.19441531 196.04563323 12.1692677 185.33005895 12.1875 174.0625 C12.90728506 166.70688832 14.76675862 160.01199677 17.1875 153.0625 C16.75928955 152.63428955 16.3310791 152.2060791 15.88989258 151.76489258 C5.95703125 141.83203125 5.95703125 141.83203125 3.98193359 139.85498047 C2.52263304 138.39726827 1.05714954 136.94574774 -0.41015625 135.49609375 C-2.1897466 133.69335426 -3.92450288 131.8769073 -5.640625 130.015625 C-17.00609355 117.69493172 -28.89966485 105.91326059 -40.79980469 94.11230469 C-41.51662918 93.39970993 -42.23345367 92.68711517 -42.97200012 91.95292664 C-44.33805254 90.59510568 -45.70621014 89.23939859 -47.07670593 87.88606262 C-47.99091057 86.9767524 -47.99091057 86.9767524 -48.92358398 86.04907227 C-49.45934555 85.51854752 -49.99510712 84.98802277 -50.54710388 84.44142151 C-53.16340899 81.59039381 -53.51512958 78.48233913 -53.47265625 74.671875 C-52.31200582 70.08421531 -48.91658971 67.36220988 -45.671875 64.0625 C-29.94981055 47.97778277 -21.38561609 25.85281258 -16.6484375 4.2265625 C-15.57650375 1.45155645 -14.04450187 -0.00538322 -11.8125 -1.9375 C-7.29186198 -3.83325143 -3.91524257 -2.69716711 0 0 Z M37.26171875 160.29296875 C32.9999297 166.52799665 31.49671759 171.53925157 32.1875 179.0625 C34.30266403 185.63064093 37.73894156 190.88324345 43.75 194.4375 C49.80122526 197.14342526 56.52283556 197.30981049 62.78125 195.1796875 C69.37732015 191.85966552 72.77536774 187.46445498 75.5625 180.75 C76.71527088 173.94865179 76.29266345 168.28156016 72.75 162.25 C68.63483348 156.71073051 63.41693613 153.85716114 56.671875 152.58984375 C49.20012527 152.13167042 42.21137034 154.56020799 37.26171875 160.29296875 Z " fill="#ffffff" transform="translate(391.8125,270.9375)"/>
<path d="M0 0 C2.99826021 2.28128494 4.61244655 3.96652412 5.9375 7.5 C6.01535375 10.6141498 5.53374877 12.28108172 4 15 C-4.19391753 22.41424494 -15.87978041 25.16642421 -26.375 27.8125 C-27.60391968 28.12272095 -27.60391968 28.12272095 -28.85766602 28.43920898 C-47.94267057 33.02385333 -69.36417105 32.68704668 -88.49609375 28.65625 C-91.76393821 28.04421224 -94.68667621 27.87709464 -98 28 C-99.2125697 30.8922769 -100.42045942 33.78633655 -101.62109375 36.68359375 C-102.47730948 38.74287748 -103.34278382 40.79836872 -104.22265625 42.84765625 C-104.58230469 43.70230469 -104.94195312 44.55695313 -105.3125 45.4375 C-105.63863281 46.19933594 -105.96476562 46.96117187 -106.30078125 47.74609375 C-107.11237251 50.36222871 -107.34030824 52.27753411 -107 55 C-105.70111096 56.67857726 -105.70111096 56.67857726 -103.875 58.0625 C-97.40298198 64.03464671 -93.35696495 72.75085961 -92.76171875 81.50390625 C-92.44681317 92.84330624 -93.63683382 101.4338031 -101.25 110.375 C-105.13951776 114.38527076 -108.95694507 117.58169296 -114 120 C-114.65097656 120.31710937 -115.30195313 120.63421875 -115.97265625 120.9609375 C-124.96966041 124.62700648 -135.47048358 124.39370265 -144.4375 120.875 C-149.32163852 118.55519943 -154.15354556 115.85776754 -158 112 C-158 111.34 -158 110.68 -158 110 C-158.66 110 -159.32 110 -160 110 C-161.15341698 107.77447742 -162.29781159 105.54504031 -163.4375 103.3125 C-163.76298828 102.68666016 -164.08847656 102.06082031 -164.42382812 101.41601562 C-168.63174901 93.13031574 -169.38058418 84.08245944 -167.31640625 74.98828125 C-164.02780393 65.20434821 -158.63817464 58.549573 -150 53 C-149.12794922 52.4121875 -149.12794922 52.4121875 -148.23828125 51.8125 C-141.80367691 48.01594386 -134.28719895 47.72112906 -127 47 C-126.8450708 46.45069824 -126.6901416 45.90139648 -126.53051758 45.33544922 C-124.44287165 38.1450742 -122.00261974 31.0946841 -119.40356445 24.07519531 C-118.9233411 22.76731119 -118.45141481 21.45635273 -117.98754883 20.14257812 C-117.30630076 18.21512126 -116.59954875 16.29877967 -115.88671875 14.3828125 C-115.47639404 13.25246582 -115.06606934 12.12211914 -114.64331055 10.95751953 C-112.62532891 7.32569224 -110.65762754 5.91266418 -107 4 C-100.55077388 4 -94.56452604 5.86350216 -88.36230469 7.47753906 C-63.43262495 13.79367376 -36.76646238 11.87428343 -12.9375 2.25 C-4.7817039 -0.99618831 -4.7817039 -0.99618831 0 0 Z M-144 73 C-144 73.66 -144 74.32 -144 75 C-144.66 75 -145.32 75 -146 75 C-148.69196999 80.4961054 -150.21219246 84.84622049 -148.4140625 91.0078125 C-145.92623961 97.01054112 -141.74739525 100.17997075 -136 103 C-130.73823485 104.45152142 -127.02624021 104.11631167 -122 102 C-117.4006298 99.04804058 -113.83916612 96.00602687 -112.3125 90.625 C-111.61892057 85.59012707 -112.43016623 81.38946763 -115 77 C-118.760978 72.83327334 -122.43370013 69.38640194 -128.19921875 68.76171875 C-134.62836029 68.56995472 -138.46740247 69.72142369 -144 73 Z " fill="#ffffff" transform="translate(316,364)"/>
<path d="M0 0 C0.69222656 0.67675781 0.69222656 0.67675781 1.3984375 1.3671875 C1.3984375 2.0271875 1.3984375 2.6871875 1.3984375 3.3671875 C2.0584375 3.3671875 2.7184375 3.3671875 3.3984375 3.3671875 C10.35392599 12.93098418 13.32926965 22.86959078 12.03515625 34.68359375 C10.1030815 44.72327049 5.34987804 52.78740885 -2.7421875 59.125 C-9.38972676 63.56600312 -15.89183921 64.96109662 -23.78125 65.875 C-26.79652281 66.20581807 -26.79652281 66.20581807 -29.6015625 68.3671875 C-30.73029467 70.84954542 -31.70834725 73.26706619 -32.6328125 75.82421875 C-32.91000122 76.56419601 -33.18718994 77.30417328 -33.47277832 78.0665741 C-34.35835815 80.43426585 -35.2307687 82.80652194 -36.1015625 85.1796875 C-36.97401042 87.54146327 -37.84931961 89.90207654 -38.73034668 92.26066589 C-39.27781055 93.72783287 -39.82014404 95.19692762 -40.35656738 96.66816711 C-43.95846052 106.36306962 -43.95846052 106.36306962 -47.8515625 108.7421875 C-53.60816649 110.05050659 -59.40623278 107.95147861 -64.9765625 106.4296875 C-92.7481186 99.22543253 -121.06397264 101.5452281 -147.26171875 113.29296875 C-150.94531764 114.47775202 -152.91620265 114.43987149 -156.6015625 113.3671875 C-159.84093677 110.65311716 -161.47324438 108.81076632 -161.8515625 104.5546875 C-161.55630698 100.79017966 -160.91087373 99.34619899 -158.6015625 96.3671875 C-156.0660996 94.96912852 -153.78029015 93.89145147 -151.1015625 92.8671875 C-150.35543701 92.57239502 -149.60931152 92.27760254 -148.84057617 91.97387695 C-121.13128577 81.37618778 -90.66889052 78.70633711 -61.7734375 86.08984375 C-59.30910835 86.64572665 -59.30910835 86.64572665 -56.6015625 84.3671875 C-54.85642223 80.89995155 -53.65688336 77.20725498 -52.3515625 73.5546875 C-51.78695312 72.05711914 -51.78695312 72.05711914 -51.2109375 70.52929688 C-50.8603125 69.56185547 -50.5096875 68.59441406 -50.1484375 67.59765625 C-49.82713867 66.71489014 -49.50583984 65.83212402 -49.17480469 64.92260742 C-48.51946855 62.00122609 -48.68928712 60.20635612 -49.6015625 57.3671875 C-50.684375 56.5009375 -50.684375 56.5009375 -51.7890625 55.6171875 C-58.44019748 50.29627951 -62.16394473 42.6721034 -63.6015625 34.3671875 C-64.72256491 23.25404011 -62.65813202 13.23830347 -55.6015625 4.3671875 C-40.98406013 -13.0719239 -17.47238142 -13.32873366 0 0 Z M-40.4140625 16.1796875 C-44.14341194 21.6138824 -45.06474568 25.74990525 -44.14453125 32.19140625 C-42.89720652 37.18967871 -39.45881549 41.09436678 -35.6015625 44.3671875 C-31.01204971 47.06690091 -25.76473273 47.13734075 -20.6015625 46.3671875 C-15.46449191 44.24210873 -11.66389128 41.02192724 -8.6015625 36.3671875 C-6.98784712 31.52604135 -6.62466617 26.18107367 -8.3203125 21.296875 C-10.98414531 16.33441226 -14.32678377 13.37820027 -19.4140625 11.1171875 C-27.64566977 9.18033873 -34.2472791 10.0129041 -40.4140625 16.1796875 Z " fill="#ffffff" transform="translate(352.6015625,34.6328125)"/>
<path d="M0 0 C22.78780529 12.21508482 37.28274658 41.09546833 45.8125 64.0625 C46.12695068 64.90868896 46.44140137 65.75487793 46.76538086 66.62670898 C47.05550049 67.42149658 47.34562012 68.21628418 47.64453125 69.03515625 C47.90596924 69.7506665 48.16740723 70.46617676 48.43676758 71.20336914 C49 73 49 73 49 75 C55.6 73.68 62.2 72.36 69 71 C69.515625 69.22625 70.03125 67.4525 70.5625 65.625 C74.04035566 55.37257133 78.91085301 49.03100757 88.15625 43.375 C97.59540216 38.81101434 110.43075259 37.95896399 120.4375 41.4375 C130.10253568 46.10508549 137.10538512 54.19765504 141.25 63.9375 C143.65621116 73.76286222 143.60336717 83.57936318 138.8125 92.75 C132.70676225 102.54757918 126.27816803 107.22106312 115.5625 111.3125 C105.05460564 113.34033926 95.44368843 111.98279806 86.3125 106.3125 C81.42181216 102.84645303 76.70976031 98.41952062 74 93 C67.60056907 92.84625992 61.72732082 93.36752618 55.4375 94.5 C40.53870807 97.1695172 40.53870807 97.1695172 35.21875 94.71875 C31.76544302 90.487233 30.8400855 85.72696669 29.5 80.5 C28.89775947 78.31254977 28.29103975 76.12632744 27.6796875 73.94140625 C27.39061523 72.90258301 27.10154297 71.86375977 26.80371094 70.79345703 C20.83685331 50.05445796 7.32800299 33.89583124 -7.84863281 19.13623047 C-12.94793484 14.17259794 -12.94793484 14.17259794 -13.08984375 10.9765625 C-12.80130847 6.5227615 -12.65078476 4.62051571 -9.3125 1.4375 C-5.61559889 -0.16681558 -3.95520901 -0.7910418 0 0 Z M92.1875 65 C88.88136172 69.5341325 88.45481376 73.5178495 89 79 C90.64564197 84.39404867 92.99321783 88.26520302 98 91 C103.27627272 93.04590167 107.56471837 93.58960755 112.875 91.4375 C116.50481542 89.53616811 118.80066184 87.51894106 121 84 C121.61875 83.1028125 121.61875 83.1028125 122.25 82.1875 C123.96458109 77.18663848 123.54079467 72.58940434 121.5 67.8125 C118.99342212 63.36902103 115.77899234 60.76757251 111 59 C103.42801672 57.78474342 97.35275179 59.10104768 92.1875 65 Z " fill="#ffffff" transform="translate(343,147)"/>
<path d="M0 0 C4.02181168 2.76066997 6.40151722 5.56317359 9.04296875 9.65234375 C11.52687387 12.9812946 11.52687387 12.9812946 15.37109375 14.171875 C18.60705067 13.94258928 21.62242499 13.40520409 24.79296875 12.71484375 C26.05625 12.46089844 27.31953125 12.20695312 28.62109375 11.9453125 C31.20300125 11.42468888 33.78330389 10.89742824 36.36328125 10.3671875 C40.47808003 9.58453215 43.64342077 9.1000959 47.79296875 9.71484375 C53.36264515 13.853303 54.2814583 18.79403389 55.79296875 25.21484375 C56.30279499 27.20688542 56.8171015 29.19778595 57.3359375 31.1875 C57.5839209 32.14414551 57.8319043 33.10079102 58.08740234 34.08642578 C63.90170363 55.74620699 77.56665736 71.90224846 93.28588867 87.22290039 C98.67113372 92.47618759 98.67113372 92.47618759 99.16796875 97.52734375 C99.10624192 100.91614645 98.78163666 101.73184189 96.79296875 104.71484375 C93.73097779 106.75617105 91.6621202 107.58287535 87.953125 107.3125 C83.38099959 106.04751774 80.20546289 102.8788553 76.79296875 99.71484375 C75.91382813 98.90402344 75.0346875 98.09320313 74.12890625 97.2578125 C55.67713889 79.50773207 43.50818276 57.3480567 36.79296875 32.71484375 C32.05139484 31.30265902 28.19457079 32.16234019 23.48046875 33.15234375 C22.73990234 33.29994141 21.99933594 33.44753906 21.23632812 33.59960938 C19.42015232 33.96284454 17.60630464 34.33768693 15.79296875 34.71484375 C15.56609375 36.01421875 15.33921875 37.31359375 15.10546875 38.65234375 C13.03231293 47.77422934 8.09295972 54.90774522 0.79296875 60.71484375 C-8.77736705 66.51461116 -17.93022273 68.25051354 -29.0703125 66.18359375 C-39.75278663 63.20093026 -47.47281872 56.07413317 -53.20703125 46.71484375 C-57.40974437 37.55669277 -57.70652058 27.17949018 -54.39453125 17.71484375 C-52.98201063 14.16460036 -51.35976471 10.87896642 -49.20703125 7.71484375 C-48.54703125 7.71484375 -47.88703125 7.71484375 -47.20703125 7.71484375 C-46.96210937 7.11800781 -46.7171875 6.52117187 -46.46484375 5.90625 C-43.47336987 0.69439644 -36.24514063 -2.93911979 -30.625 -4.8125 C-19.74425017 -6.93943171 -9.54312912 -5.55697253 0 0 Z M-31.1796875 17.55859375 C-35.90863836 22.91871875 -37.59048081 25.92607144 -37.4765625 33.11328125 C-36.96974509 38.00517105 -35.11943179 41.04783974 -31.44140625 44.25390625 C-27.50508549 47.02792758 -24.06917136 48.49102022 -19.21875 48.12890625 C-13.8306466 47.01989856 -9.68030697 44.75402312 -6.26953125 40.40234375 C-3.30237976 35.7010125 -2.8740828 31.61264991 -3.83203125 26.15234375 C-5.6545183 21.59612612 -7.70706953 18.0368911 -12.171875 15.67578125 C-18.64938265 13.09442811 -25.70064665 12.43758923 -31.1796875 17.55859375 Z " fill="#ffffff" transform="translate(84.20703125,259.28515625)"/>
<path d="M0 0 C3.62235321 3.12698867 7.38453853 6.38835182 8.6875 11.125 C8.61711832 15.10860311 8.56578854 17.05354229 5.9609375 20.2109375 C2.31674086 22.07180387 0.14933526 22.85079844 -3.9765625 22.7109375 C-7.77188167 20.67886036 -10.86408316 17.71806842 -14.0390625 14.84375 C-31.92794811 -0.62268235 -56.11451449 -6.72766878 -79.3203125 -5.046875 C-100.74549835 -2.84134116 -117.79911266 6.94832802 -134.109375 20.48046875 C-136.64866206 22.1538483 -139.01393455 22.24620371 -142.0078125 22.12890625 C-145.45756541 21.39651823 -146.95424489 19.46864334 -148.9765625 16.7109375 C-150.33309285 13.48917793 -150.01518393 11.87829705 -149.2265625 8.4609375 C-142.61551267 -5.23549757 -120.87215698 -14.62092671 -107.14208984 -19.56201172 C-70.10479719 -31.99685473 -30.21739282 -24.50071111 0 0 Z " fill="#ffffff" transform="translate(326.9765625,209.2890625)"/>
<path d="M0 0 C3.63092603 3.03871617 5.97436742 5.25735926 7.25 9.875 C7.17716612 14.02653123 6.89002035 16.11861231 4.1875 19.3125 C0.48572276 21.28153045 -2.67459808 21.60833471 -6.75 20.875 C-9.29690347 19.483876 -11.30672898 17.64278841 -13.4375 15.6875 C-25.33556001 5.55343419 -38.29412836 2.99982778 -53.75 3.875 C-65.98584806 5.52562802 -75.76596277 11.6721834 -84.75 19.875 C-87.98415916 21.49207958 -91.25375265 21.44322376 -94.75 20.875 C-97.85344462 18.87069202 -99.31457586 17.4121349 -100.33203125 13.8203125 C-100.69659608 10.24881302 -100.37316935 7.83873865 -98.40625 4.796875 C-72.87955795 -22.67676814 -28.08267424 -22.88439198 0 0 Z " fill="#ffffff" transform="translate(302.75,236.125)"/>
<path d="M0 0 C4.41058862 3.45176501 7.36263339 7.64774785 9 13 C10.06589001 21.90610321 8.81215817 27.78176274 3.875 35.1875 C-0.04499306 39.53915896 -4.99276209 41.61928282 -10.74609375 42.34765625 C-17.60890363 42.56658084 -23.64539302 41.93612482 -28.94140625 37.30078125 C-34.13912275 31.77752927 -36.97953938 26.21838694 -37.5 18.625 C-37.23605761 12.25738993 -34.60473559 6.59403853 -30.09765625 2.10546875 C-20.36617554 -5.57138071 -10.73107152 -5.65280969 0 0 Z M-16 15 C-16.66 16.65 -17.32 18.3 -18 20 C-16.77190909 21.64555699 -16.77190909 21.64555699 -15 23 C-12.83700789 22.77242269 -12.83700789 22.77242269 -11 22 C-10.32041397 19.60280568 -10.32041397 19.60280568 -10 17 C-10.66 16.34 -11.32 15.68 -12 15 C-13.32 15 -14.64 15 -16 15 Z " fill="#ffffff" transform="translate(270,291)"/>
<path d="M0 0 C5.7482866 2.94611684 10.23222731 5.74464341 12.33984375 12.19921875 C12.33984375 16.16161721 11.59242713 17.84713282 9.27734375 21.07421875 C6.18217804 23.3132748 4.22568111 23.92740582 0.3984375 23.703125 C-2.65431047 22.95586791 -4.72834031 21.38227669 -7.1171875 19.390625 C-10.62891847 16.67903527 -14.72469637 16.75945393 -18.9765625 16.765625 C-22.91815506 17.4024762 -25.28666469 19.49888464 -28.42578125 21.84765625 C-32.07861222 24.05723582 -35.55227617 24.1870857 -39.66015625 23.19921875 C-42.16176443 21.32301262 -43.27961277 19.96030572 -44.66015625 17.19921875 C-45.14028658 13.03808925 -45.00574291 10.8039954 -42.91015625 7.13671875 C-32.38949283 -4.17451475 -13.61106796 -5.83331484 0 0 Z " fill="#ffffff" transform="translate(272.66015625,258.80078125)"/>
</svg>
